<svg xmlns="http://www.w3.org/2000/svg" xml:space="preserve" viewBox="0 0 450 500"><path fill="#ff5050" d="M225 105.976c-79.542 0-144.024 64.482-144.024 144.023 0 79.543 64.482 144.025 144.024 144.025s144.024-64.482 144.024-144.025c0-79.541-64.482-144.023-144.024-144.023ZM113.246 249.999c0-61.718 50.034-111.753 111.754-111.753 24.824 0 47.752 8.099 66.299 21.791L135.037 316.299c-13.692-18.547-21.791-41.475-21.791-66.3ZM225 361.754c-24.824 0-47.752-8.099-66.299-21.791l156.261-156.261c13.693 18.546 21.792 41.473 21.792 66.297 0 61.721-50.035 111.755-111.754 111.755Z" stroke-width="10" stroke="#4d4d4d"/></svg>
